<?xml version="1.0" encoding="UTF-8"?>
<svg version="1.1" viewBox="0 0 2000 2000" width="1280" height="1280" xmlns="http://www.w3.org/2000/svg">
<path transform="translate(0)" d="m0 0h2e3v2e3h-2e3z" fill="#FEFEFE"/>
<path transform="translate(999,678)" d="m0 0 4 2 28 28 9 11 13 17 11 17 10 18 10 21 9 25 6 22 4 24 2 21v31l-3 27-5 27-6 24-9 27-13 31-11 22-16 27-12 17-9 12-6 7v5l12 13 11 12 7 7 7 8 17 16 8 7 8-1 35-12 32-13 27-13 14-7v-3l-16-8-13-6-17-6-22-5-17-2h-21l-20 2-9 1 1-5 10-22 12-21 18-27 12-16 9-11 11-12 7-8 13-13 8-7 14-12 18-13 13-8 19-11 20-9 22-8 26-7 30-5 17-1h11l27 2 23 3 1 1v8l-7 29-7 20-8 20-10 20-8 14-14 21-8 11-9 11-12 14-23 23-11 9-11 10-22 16-15 10v4l8 8 8 7 13 14 11 14 13 18 13 22 12 23 11 24 4 9-1 4-15 5-17 3h-36l-23-3-23-5-30-10-29-13-17-9-21-13-17-12-24-18-9 1-27 7-36 8-11-1-36-8-25-6-6-1-17 13-18 13-19 12-16 9-16 8-15 7-25 9-21 6-27 5-8 1h-37l-19-3-15-5 1-7 12-27 11-22 13-22 12-17 10-13 6-8h2l2-4 9-9 6-7 8-7 1-4-16-10-13-10-14-11-10-9-8-7-24-24-9-11-10-12-13-18-18-30-11-23-10-26-7-26-2-12v-6l4-2 27-4h42l24 3 28 6 26 9 18 8 23 12 20 13 16 12 13 11 12 11 19 19 9 11 12 15 13 18 11 17 13 23 12 25 1 2h-7l-19-3h-26l-17 2-22 5-19 7-21 10-7 5 3 3 24 11 17 8 28 11 25 9 15 5h6l14-14 8-7 19-19 7-8 9-10 5-6-1-5-13-16-14-21-9-15-14-26-12-27-11-30-8-29-5-27-3-27v-34l3-27 5-25 6-21 8-21 12-25 10-17 12-17 11-14 12-14 21-21z" fill="#32B5FE"/>
<path transform="translate(998,705)" d="m0 0 5 1 7 8 13 14 10 13 12 17 11 19 10 21 6 15 6 21 4 19 3 25v39l-3 26-5 25-7 26-9 25-11 25-10 20-11 19-14 21-10 13-4 5-4-2-9-11-12-17-9-15-10-18-14-29-10-26-8-26-6-28-3-21-1-11v-43l3-23 7-30 8-22 5-11 8-16 8-14 12-17 11-14 9-10 7-8z" fill="#FEFEFE"/>
<path transform="translate(625,936)" d="m0 0h53l21 3 22 5 27 9 27 13 20 12 16 12 10 8 10 9 8 7 15 15 7 8 11 13 9 12 12 17 11 18 4 7-1 3h-15l-26 4-24 6-18 7-21 10-17 11h-5l-25-17-17-13-11-9-26-24-9-10-8-9-10-13-12-17-8-13-10-18-11-24-10-30-1-4v-7z" fill="#FEFEFE"/>
<path transform="translate(1320,936)" d="m0 0h55l3 2-4 16-9 25-16 33-13 21-13 18-13 16-9 10-12 13-12 11-11 9-15 12-18 13-15 10h-5l-11-7-20-11-23-9-17-5-21-4-8-1-20-1-1-4 12-19 10-15 12-16 12-14 9-11 17-17 8-7 15-13 17-12 16-10 23-12 20-8 23-7 19-4z" fill="#FEFEFE"/>
<path transform="translate(1213,1170)" d="m0 0 5 2 12 11 8 7 9 10 9 11 12 16 14 22 12 23 6 12 1 6-3 2h-42l-25-4-20-5-23-8-18-8-16-8-16-9-17-11-20-14-3-2 1-3 40-15 28-12 27-13 16-9z" fill="#FEFEFE"/>
<path transform="translate(783,1171)" d="m0 0 7 1 27 14 28 13 31 12 24 9v4l-12 8-14 10-25 15-23 12-28 11-25 7-21 4-8 1-23 1-20-1-3-3 10-22 11-20 12-19 13-17 11-13 12-13 11-10z" fill="#FEFEFE"/>
<path transform="translate(999,1155)" d="m0 0 4 2 14 15 7 8 23 23 7 6v3l-10 3-36 9-11 1-26-6-25-6 1-5 4-2v-2l8-7 16-16 7-8 8-8 7-8z" fill="#FEFEFE"/>
</svg>
